<?xml version="1.0" encoding="UTF-8" standalone="no"?>
<svg
   viewBox="-2 -2 144 144"
   version="1.1"
   id="svg2"
   width="144"
   height="144"
   xmlns="http://www.w3.org/2000/svg"
   xmlns:svg="http://www.w3.org/2000/svg">
   <defs
      id="defs2" />
   <!-- Custom (traced from official FFXIV art)-->
   <rect
      style="display:none;fill:#694b1c;fill-opacity:1;stroke-width:30"
      id="rect2"
      width="144"
      height="144"
      x="-2"
      y="-2" />
   <circle
      style="display:inline;opacity:1;fill:#694b1c;fill-opacity:1;stroke-width:53.8583"
      id="path2"
      cx="70.000008"
      cy="69.952087"
      r="69.920036" />
   <path
      id="path1"
      style="display:inline;fill:#f5f5f5;fill-opacity:1;stroke-width:5.48576"
      d="m 25.440819,22.663443 c 0,0 -9.150669,26.799197 -1.463748,38.550244 -3.538782,7.057095 -10.499706,19.633384 -6.720539,34.910303 13.059377,-6.109694 13.557397,-4.935712 19.410642,-5.167185 7.446524,-0.11839 14.626946,1.715375 16.114018,7.394418 1.487072,5.684417 8.178714,14.457957 17.335926,14.457957 9.397617,0.0269 13.54116,-5.76186 16.839534,-13.987056 3.125085,-7.799947 15.998508,-7.858443 17.463218,-7.750779 6.46819,0.468371 14.27813,2.117634 18.30328,3.996294 4.27112,-21.505009 -5.02233,-31.684611 -6.59325,-33.853952 8.17887,-14.927008 -2.80021,-38.550244 -2.80021,-38.550244 0,0 -15.013032,7.99791 -21.727211,16.341541 C 70.000834,27.485393 51.773624,38.000945 48.63177,39.475909 36.914109,25.722381 25.440819,22.663475 25.440819,22.663475 Z m 85.037701,11.454353 c 0.15257,0.0055 0.29308,0.0324 0.40727,0.07635 1.8281,0.705165 1.09894,9.278639 1.22194,13.15976 -1.4703,-1.760221 -8.04953,-6.694197 -10.98453,-7.636226 0.79664,-1.65526 7.06708,-5.684219 9.35529,-5.599905 z m -80.328237,0.06392 c 2.684019,-0.148039 12.238643,6.477849 9.329839,6.477849 -5.981823,0 -10.857229,6.694423 -10.857229,6.694423 0,0 -1.163922,-11.561487 1.094629,-13.057951 0.112151,-0.07403 0.253887,-0.104687 0.432771,-0.114518 z m 7.866086,27.032263 h 16.597699 c 4.723956,0 4.723956,7.063504 0,7.063504 H 38.016369 c -4.718366,0 -4.718366,-7.063504 0,-7.063504 z m 47.603813,0.114519 h 16.966808 c 4.72397,0.0055 4.72397,7.063511 0,7.063511 H 85.620182 c -4.723954,0 -4.723954,-7.063511 0,-7.063511 z m 16.686788,32.314266 c -11.550586,0.196645 -13.390162,10.245266 -13.390162,10.245266 0,0 -5.60733,12.68781 -18.901513,12.33252 -13.802906,0.47375 -18.685126,-14.34338 -18.685126,-14.34338 0,0 -2.647343,-8.571573 -14.28115,-8.221685 -11.63379,0.349932 -18.557845,6.223539 -18.557845,6.223539 0,0 5.24452,29.632236 51.511392,30.455826 44.064214,-1.06044 51.511394,-30.455826 51.511394,-30.455826 0,0 -8.17746,-6.110483 -18.06144,-6.223539 -0.39314,-0.01481 -0.77294,-0.01875 -1.14555,-0.01252 z M 66.489559,97.34634 h 7.216945 c 1.017459,0.0539 1.880243,1.172123 2.17654,2.087224 0.08383,0.253 0.05115,1.147926 0.05115,1.336336 -0.0055,0 -0.259879,2.52125 -2.96569,3.5763 l -5.765907,-0.0259 c -2.806427,-1.91595 -2.927502,-3.52529 -2.927502,-3.52529 -0.01703,-0.13998 -0.116496,-1.018756 -0.03832,-1.336326 0.173297,-0.75901 0.844101,-1.838162 2.252908,-2.112696 z m -29.427809,4.16174 c 1.010129,0.17145 1.300294,1.76976 0.101968,2.06179 -2.605163,0.64596 -5.340976,0.75578 -8.018828,0.7127 -1.414388,-0.0215 -1.414388,-2.12882 0,-2.11268 2.482187,0.0324 5.01265,-0.0446 7.433333,-0.63642 0.171243,-0.0418 0.339367,-0.0505 0.483641,-0.0259 z m 65.97073,0.11459 c 0.14261,-0.0174 0.30188,-2.3e-4 0.47101,0.0511 2.2362,0.67288 4.78792,0.56535 7.10238,0.56004 1.41999,-0.005 1.4146,2.10731 0,2.11269 -2.49894,0.005 -5.2672,0.0958 -7.68789,-0.6364 -1.17889,-0.35329 -0.88359,-1.96426 0.11458,-2.08724 z m -5.74046,4.83628 c 0.145546,-0.0289 0.311045,-0.0363 0.483719,0 2.599571,0.54906 5.196311,0.72884 7.840621,0.71269 1.42559,-0.0109 1.4202,2.10195 0,2.11271 -2.83997,0.0214 -5.642051,-0.19695 -8.426125,-0.78907 -1.213146,-0.25435 -0.916649,-1.83662 0.101968,-2.03633 z m -55.444432,0.0511 c 1.386444,-0.25301 1.964805,1.79606 0.572742,2.04906 -2.750525,0.51136 -5.420083,0.6226 -8.209745,0.68726 -1.419983,0.0326 -1.414391,-2.08039 0,-2.11269 2.593979,-0.0593 5.070943,-0.14994 7.636976,-0.62362 z" />
</svg>