<?xml version="1.0" encoding="UTF-8" standalone="no"?>
<svg
   viewBox="-2 -2 24 24"
   version="1.1"
   width="24"
   height="24"
   xmlns="http://www.w3.org/2000/svg"
   xmlns:svg="http://www.w3.org/2000/svg">

   <!-- Custom (traced from official FFXIV art)-->
   <g
      transform="translate(0.39999966,0.0613813)">
      <path
         fill="#f5f5f5"
         d="m 16.678722,7.5933581 c 1.25503,-2.2907391 -0.43064,-5.9156087 -0.43064,-5.9156087 0,0 -2.304178,1.225913 -3.334452,2.5063478 C 9.5989082,2.4162711 6.8031837,4.0304451 6.3210735,4.2567929 4.5230254,2.1461407 2.7618648,1.6777494 2.7618648,1.6777494 c 0,0 -1.404296,4.1122609 -0.2247559,5.9156087 -0.5430174,1.083 -1.61017951,3.0119129 -1.0302747,5.3563479 2.0039313,-0.937609 2.0802798,-0.757522 2.978446,-0.793044 1.1426526,-0.01817 2.2441285,0.264348 2.472316,1.13587 0.2281873,0.872347 1.2550306,2.218869 2.6601843,2.218869 1.4420415,0.0041 2.0785645,-0.883913 2.5846935,-2.146174 0.479537,-1.197 2.453444,-1.206913 2.6782,-1.190391 0.992529,0.07187 2.1918,0.324652 2.80945,0.612956 C 18.34552,9.4875755 16.919777,7.9262711 16.678722,7.5933581 Z m -13.428742,-2.128 c 0,0 -0.1784323,-1.7727826 0.1681381,-2.0024348 0.2753689,-0.1817391 1.9747645,0.9747826 1.4986592,0.9747826 -0.9178966,0 -1.6667973,1.0276522 -1.6667973,1.0276522 z m 3.9889901,3.211 H 4.6911635 c -0.7240232,0 -0.7240232,-1.083 0,-1.083 h 2.5478066 c 0.7248809,0 0.7248809,1.083 0,1.083 z m 2.8163129,5.5364339 -0.8852986,-0.005 c -0.4306394,-0.294043 -0.449512,-0.540217 -0.449512,-0.540217 -0.00258,-0.02148 -0.016299,-0.15613 -0.00429,-0.204869 0.026593,-0.116479 0.1278192,-0.282522 0.3439968,-0.324653 l 1.1083388,-8.26e-4 c 0.156128,0.0083 0.289095,0.180087 0.33456,0.320522 0.01287,0.03883 0.0069,0.175957 0.0069,0.20487 -8.26e-4,0 -0.03946,0.38826 -0.454659,0.550173 z m 4.544875,-5.5190861 h -2.603567 c -0.72488,0 -0.72488,-1.083 0,-1.083 h 2.603567 c 0.724881,8.261e-4 0.724881,1.083 0,1.083 z M 16.061072,5.4653581 C 15.835458,5.1952277 14.824914,4.4377059 14.374544,4.2931407 c 0.130393,-0.2709565 1.218143,-0.9557826 1.498659,-0.8475652 0.280516,0.1082174 0.168996,1.4241739 0.187869,2.0197826 z"
         style="stroke-width:0.841816" />
      <path
         fill="#f5f5f5"
         d="m 14.733124,12.572184 c -1.930156,-0.0727 -2.230403,1.568739 -2.230403,1.568739 0,0 -0.861279,1.947913 -2.9012392,1.893391 -2.1180253,0.0727 -2.866926,-2.200695 -2.866926,-2.200695 0,0 -0.4066196,-1.315131 -2.1917999,-1.261435 -1.7851803,0.0537 -2.8471953,0.954956 -2.8471953,0.954956 0,0 0.8055187,4.545957 7.9050637,4.672348 6.7615517,-0.162739 7.9042047,-4.672348 7.9042047,-4.672348 0,0 -1.255031,-0.937608 -2.771705,-0.954956 z M 3.3306176,14.202879 c -0.2170353,-0.0033 -0.2170353,-0.32713 0,-0.324652 0.3808842,0.005 0.7694891,-0.0066 1.140937,-0.09748 0.2101726,-0.05122 0.2993887,0.26187 0.089216,0.313087 -0.3997569,0.09913 -0.8192442,0.115652 -1.2301531,0.109043 z m 2.0373874,0.655087 c -0.4220608,0.07848 -0.831254,0.09665 -1.2593199,0.106566 -0.2178931,0.005 -0.2170353,-0.320522 0,-0.325479 0.3980412,-0.0091 0.7763519,-0.02148 1.1701038,-0.09417 0.2127461,-0.03883 0.3028202,0.274261 0.089216,0.313087 z m 9.697106,0.111522 c -0.435787,0.0033 -0.865567,-0.02891 -1.292776,-0.119782 -0.212746,-0.04461 -0.122672,-0.357696 0.08922,-0.313087 0.398899,0.08426 0.796941,0.110695 1.202702,0.108217 0.218752,-0.0017 0.218752,0.323 8.27e-4,0.324652 z m 0.766058,-0.757522 c -0.383458,8.26e-4 -0.80895,0.01487 -1.180398,-0.09748 -0.206741,-0.06196 -0.118383,-0.375869 0.08922,-0.313087 0.343139,0.103261 0.735175,0.08674 1.090324,0.08591 0.217893,-8.26e-4 0.217893,0.323826 8.26e-4,0.324652 z"
         style="stroke-width:0.841816" />
   </g>
</svg>