<?xml version="1.0" encoding="UTF-8" standalone="yes"?>
<svg
  viewBox="-2 -2 23.2 24"
  version="1.1"
  xmlns="http://www.w3.org/2000/svg"
  xmlns:svg="http://www.w3.org/2000/svg"
>
  <!-- Custom (traced from official FFXIV art)-->
  <path
    fill="#f5f5f5"
    d="M17.881,7.161C19.344,4.388,17.379,0,17.379,0s-2.686,1.484-3.887,3.034c-3.864-2.14-7.123-0.186-7.685,0.088
		C3.711,0.567,1.658,0,1.658,0S0.021,4.978,1.396,7.161c-0.633,1.311-1.877,3.646-1.201,6.484c2.336-1.135,2.425-0.917,3.472-0.96
		c1.332-0.022,2.616,0.32,2.882,1.375c0.266,1.056,1.463,2.686,3.101,2.686c1.681,0.005,2.423-1.07,3.013-2.598
		c0.559-1.449,2.86-1.461,3.122-1.441c1.157,0.087,2.555,0.393,3.275,0.742C19.824,9.454,18.162,7.564,17.881,7.161z M2.227,4.585
		c0,0-0.208-2.146,0.196-2.424c0.321-0.22,2.302,1.18,1.747,1.18C3.1,3.341,2.227,4.585,2.227,4.585z M6.877,8.472h-2.97
		c-0.844,0-0.844-1.311,0-1.311h2.97C7.722,7.161,7.722,8.472,6.877,8.472z M10.16,15.174l-1.032-0.006
		c-0.502-0.356-0.524-0.654-0.524-0.654c-0.003-0.026-0.019-0.189-0.005-0.248C8.63,14.125,8.748,13.924,9,13.873l1.292-0.001
		c0.182,0.01,0.337,0.218,0.39,0.388c0.015,0.047,0.008,0.213,0.008,0.248C10.689,14.508,10.644,14.978,10.16,15.174z M15.458,8.493
		h-3.035c-0.845,0-0.845-1.311,0-1.311h3.035C16.303,7.183,16.303,8.493,15.458,8.493z M17.161,4.585
		c-0.263-0.327-1.441-1.244-1.966-1.419c0.152-0.328,1.42-1.157,1.747-1.026S17.139,3.864,17.161,4.585z"
  />
  <path
    fill="#f5f5f5"
    d="M15.613,13.188c-2.25-0.088-2.6,1.899-2.6,1.899s-1.004,2.358-3.382,2.292
	c-2.469,0.088-3.342-2.664-3.342-2.664s-0.474-1.592-2.555-1.527s-3.319,1.156-3.319,1.156S1.354,19.847,9.63,20
	c7.882-0.197,9.214-5.656,9.214-5.656S17.381,13.209,15.613,13.188z M2.321,15.162c-0.253-0.004-0.253-0.396,0-0.393
	c0.444,0.006,0.897-0.008,1.33-0.118C3.896,14.589,4,14.968,3.755,15.03C3.289,15.15,2.8,15.17,2.321,15.162z M4.696,15.955
	c-0.492,0.095-0.969,0.117-1.468,0.129c-0.254,0.006-0.253-0.388,0-0.394c0.464-0.011,0.905-0.026,1.364-0.114
	C4.84,15.529,4.945,15.908,4.696,15.955z M16,16.09c-0.508,0.004-1.009-0.035-1.507-0.145c-0.248-0.054-0.143-0.433,0.104-0.379
	c0.465,0.102,0.929,0.134,1.402,0.131C16.254,15.695,16.254,16.088,16,16.09z M16.893,15.173c-0.447,0.001-0.943,0.018-1.376-0.118
	c-0.241-0.075-0.138-0.455,0.104-0.379c0.4,0.125,0.857,0.105,1.271,0.104C17.146,14.779,17.146,15.172,16.893,15.173z"
  />
</svg>