<?xml version="1.0" encoding="UTF-8" standalone="no"?>
<svg
   viewBox="-2 -2 143.99999 144"
   version="1.1"
   width="144"
   height="144"
   xmlns="http://www.w3.org/2000/svg"
   xmlns:svg="http://www.w3.org/2000/svg">
   <defs>
      <clipPath
         clipPathUnits="userSpaceOnUse"
         id="clipPath4">
         <circle
            cx="70.000008"
            cy="69.952087"
            r="69.920036" />
      </clipPath>
   </defs>
   <!-- Custom (traced from official FFXIV art)-->
   <circle
      style="fill:#694b1c;"
      cx="70.000008"
      cy="69.952087"
      r="69.920036" />
   <path
      style="fill:#f5f5f5;"
      d="m 58.370204,7.3041165 c 0,0 -30.086846,88.1140705 -4.812717,126.7507935 -11.635289,23.2033 -34.522392,64.55333 -22.09672,114.78288 42.938427,-20.08828 44.575891,-16.2283 63.820965,-16.98938 24.483698,-0.38925 48.092498,5.64005 52.981888,24.31241 4.88941,18.68997 26.89109,47.53683 56.99942,47.53683 30.89879,0.0885 44.52249,-18.94464 55.36737,-45.98854 10.27506,-25.64575 52.60209,-25.83809 57.41797,-25.48408 21.26699,1.53997 46.94559,6.96262 60.18003,13.13955 C 392.27158,174.65744 361.7153,141.18756 356.55021,134.05491 383.44182,84.975827 347.3433,7.3041165 347.3433,7.3041165 c 0,0 -49.36193,26.2966235 -71.4377,53.7299665 C 204.88073,23.158388 144.9508,57.732864 134.62058,62.582445 96.093654,17.361713 58.370204,7.3042225 58.370204,7.3042225 Z M 337.96884,44.965309 c 0.50163,0.01645 0.96362,0.106536 1.33908,0.251201 6.01067,2.318519 3.61323,30.507582 4.01766,43.268467 -4.83426,-5.78749 -26.46635,-22.010107 -36.11645,-25.10744 2.6193,-5.442397 23.23611,-18.689367 30.75961,-18.412129 z M 73.854614,45.175411 c 8.824884,-0.486745 40.239876,21.298758 30.675916,21.298758 -19.667841,0 -35.697878,22.010848 -35.697878,22.010848 0,0 -3.826904,-38.013464 3.599074,-42.933727 0.368733,-0.243312 0.834766,-0.344215 1.422915,-0.376536 z M 99.71782,134.05579 H 154.29 c 15.53208,0 15.53208,23.22438 0,23.22438 H 99.71782 c -15.513705,0 -15.513705,-23.22438 0,-23.22438 z m 156.51836,0.37654 h 55.7858 c 15.53212,0.0197 15.53212,23.22438 0,23.22438 h -55.7858 c -15.53209,0 -15.53209,-23.22438 0,-23.22438 z m 54.8651,106.24731 c -37.97761,0.64654 -44.02603,33.68576 -44.02603,33.68576 0,0 -18.43655,41.71672 -62.14698,40.54856 -45.38307,1.55766 -61.43551,-47.16014 -61.43551,-47.16014 0,0 -8.70433,-28.18278 -46.95553,-27.03237 -38.251169,1.15054 -61.017041,20.46261 -61.017041,20.46261 0,0 17.243653,97.42891 169.366221,100.13683 144.88041,-3.48665 169.36626,-100.13683 169.36626,-100.13683 0,0 -26.88698,-20.0909 -59.38489,-20.46261 -1.29262,-0.0487 -2.54138,-0.0614 -3.7665,-0.0411 z m -117.76539,12.1771 h 23.72885 c 3.34535,0.17721 6.1821,3.85389 7.15633,6.86267 0.27551,0.83185 0.16833,3.7743 0.16833,4.39378 -0.0197,0 -0.85447,8.28971 -9.75099,11.75864 l -18.95796,-0.0851 c -9.22733,-6.29952 -9.62543,-11.59093 -9.62543,-11.59093 -0.0559,-0.46024 -0.38301,-3.34958 -0.12593,-4.39374 0.5698,-2.49556 2.77535,-6.04375 7.40743,-6.94642 z m -96.75681,13.68353 c 3.32125,0.56373 4.27527,5.81886 0.33525,6.77903 -8.565605,2.12388 -17.560778,2.48498 -26.365384,2.34333 -4.650417,-0.0707 -4.650417,-6.99942 0,-6.94637 8.161253,0.10652 16.481285,-0.14657 24.440326,-2.09251 0.563031,-0.13747 1.115827,-0.16609 1.590188,-0.0851 z m 216.90764,0.37678 c 0.46889,-0.0572 0.99256,-7.6e-4 1.54865,0.16794 7.3525,2.21238 15.74239,1.85883 23.35218,1.84136 4.66883,-0.0168 4.65111,6.92872 0,6.94639 -8.21635,0.0168 -17.31822,0.31501 -25.2773,-2.09243 -3.8761,-1.1616 -2.90517,-6.45836 0.37673,-6.86272 z m -18.87426,15.90138 c 0.47851,-0.0951 1.02267,-0.11931 1.59044,0 8.54721,1.80526 17.08513,2.39637 25.77945,2.34328 4.68726,-0.0358 4.66953,6.91109 0,6.94646 -9.33764,0.0703 -18.5507,-0.64757 -27.70458,-2.59442 -3.98872,-0.8363 -3.01388,-6.03868 0.33528,-6.69532 z m -182.29787,0.16794 c 4.55857,-0.83188 6.46018,5.90535 1.88317,6.73719 -9.04357,1.68131 -17.82091,2.04706 -26.993137,2.25966 -4.668812,0.10719 -4.650426,-6.84019 0,-6.94639 8.52884,-0.19498 16.672927,-0.49301 25.109907,-2.05042 z"
      clip-path="url(#clipPath4)" />
</svg>