<?xml version="1.0" encoding="UTF-8" standalone="no"?>
<svg
   viewBox="-2 -2 143.99999 144"
   version="1.1"
   id="svg2"
   width="144"
   height="144"
   xmlns="http://www.w3.org/2000/svg"
   xmlns:svg="http://www.w3.org/2000/svg">
  <defs
     id="defs2" />
  <!-- Custom (traced from official FFXIV art)-->
  <rect
     style="display:none;fill:#694b1c;fill-opacity:1;stroke-width:30"
     id="rect2"
     width="144"
     height="144"
     x="-2"
     y="-2" />
  <circle
     style="display:none;opacity:1;fill:#af0000;fill-opacity:1;stroke-width:44.3684"
     id="path2"
     cx="69.998825"
     cy="74.158752"
     r="57.599998" />
  <path
     id="path1"
     style="display:inline;stroke-width:4.51916;fill:#f5f5f5;fill-opacity:1"
     d="m 33.29105,35.202453 c 0,0 -7.538304,22.077128 -1.205833,31.757619 -2.915242,5.813622 -8.649638,16.173945 -5.536367,28.759042 10.75829,-5.033154 11.168558,-4.06603 15.99045,-4.256717 6.134433,-0.09753 12.049651,1.413122 13.274698,6.09151 1.225048,4.682813 6.73761,11.910433 14.281304,11.910433 7.741739,0.0221 11.155182,-4.74661 13.872376,-11.522513 2.574439,-6.425577 13.179547,-6.473766 14.386171,-6.385073 5.328481,0.385844 11.762301,1.744503 15.078211,3.29214 3.51854,-17.715786 -4.13739,-26.101723 -5.43151,-27.888822 6.73774,-12.296842 -2.30681,-31.757619 -2.30681,-31.757619 0,0 -12.36771,6.588663 -17.898838,13.462131 C 69.999507,39.174766 54.983966,47.837458 52.395712,49.052531 42.742725,37.7224 33.29105,35.202479 33.29105,35.202479 Z m 70.05391,9.436075 c 0.12568,0.0045 0.24143,0.02669 0.3355,0.0629 1.50599,0.580914 0.90531,7.643725 1.00663,10.840985 -1.21123,-1.450066 -6.631181,-5.514667 -9.049036,-6.290708 0.656272,-1.3636 5.821856,-4.682649 7.706876,-4.613191 z m -66.174262,0.05266 c 2.211089,-0.121954 10.082171,5.33644 7.685903,5.33644 -4.927814,0 -8.944164,5.514853 -8.944164,5.514853 0,0 -0.958837,-9.524331 0.901753,-10.757115 0.09239,-0.06099 0.209152,-0.08624 0.356516,-0.09434 z m 6.480067,22.269128 h 13.673153 c 3.891586,0 3.891586,5.818901 0,5.818901 H 43.650765 c -3.886981,0 -3.886981,-5.818901 0,-5.818901 z m 39.215931,0.09434 h 13.977233 c 3.891591,0.0045 3.891591,5.818908 0,5.818908 H 82.866696 c -3.891584,0 -3.891584,-5.818908 0,-5.818908 z m 13.74655,26.620432 c -9.515356,0.161996 -11.030795,8.440032 -11.030795,8.440032 0,0 -4.619308,10.45219 -15.571031,10.15951 -11.370808,0.39027 -15.392772,-11.81605 -15.392772,-11.81605 0,0 -2.180876,-7.061249 -11.764785,-6.773013 -9.583894,0.288274 -15.287918,5.12694 -15.287918,5.12694 0,0 4.320426,24.410983 42.434989,25.089453 36.300026,-0.87359 42.434996,-25.089453 42.434996,-25.089453 0,0 -6.73658,-5.033804 -14.87898,-5.12694 -0.32387,-0.0122 -0.636751,-0.01545 -0.943704,-0.01031 z m -29.506321,3.050999 h 5.945306 c 0.838181,0.0444 1.548941,0.96559 1.793029,1.71945 0.06906,0.20842 0.04213,0.945662 0.04213,1.100872 -0.0045,0 -0.214088,2.077001 -2.443129,2.946151 l -4.749944,-0.0213 c -2.311929,-1.57835 -2.41167,-2.904121 -2.41167,-2.904121 -0.01403,-0.11532 -0.09597,-0.839252 -0.03157,-1.100872 0.142762,-0.62527 0.695369,-1.51427 1.855942,-1.74043 z m -24.242574,3.428433 c 0.832143,0.14124 1.07118,1.45793 0.084,1.6985 -2.146128,0.53214 -4.399886,0.62261 -6.605895,0.58712 -1.16517,-0.0177 -1.16517,-1.75372 0,-1.74042 2.044821,0.0267 4.129411,-0.0367 6.123565,-0.52428 0.14107,-0.0344 0.279571,-0.0416 0.398424,-0.0213 z m 54.346567,0.0944 c 0.117487,-0.0143 0.248692,-1.9e-4 0.388018,0.0421 1.842178,0.55432 3.944284,0.46573 5.850924,0.46136 1.16979,-0.004 1.16535,1.736 0,1.74043 -2.05862,0.004 -4.339105,0.0789 -6.333263,-0.52427 -0.971173,-0.29104 -0.727905,-1.61815 0.09439,-1.71946 z m -4.728983,3.98411 c 0.1199,-0.0238 0.256238,-0.0299 0.398487,0 2.141522,0.45232 4.280717,0.60043 6.459095,0.58712 1.174393,-0.009 1.169953,1.73158 0,1.74044 -2.339566,0.0176 -4.647916,-0.16224 -6.941432,-0.65003 -0.999388,-0.20953 -0.755134,-1.513 0.084,-1.67753 z m -45.675019,0.0421 c 1.14215,-0.20843 1.618602,1.47959 0.471824,1.68801 -2.265878,0.42126 -4.465055,0.5129 -6.763173,0.56616 -1.169779,0.0268 -1.165173,-1.71382 0,-1.74042 2.136915,-0.0489 4.177434,-0.12352 6.291327,-0.51374 z" />
</svg>
